<?xml version="1.0" standalone="no"?>
<!DOCTYPE svg PUBLIC "-//W3C//DTD SVG 20010904//EN"
 "http://www.w3.org/TR/2001/REC-SVG-20010904/DTD/svg10.dtd">
<svg version="1.0" xmlns="http://www.w3.org/2000/svg"
 width="3000.000000pt" height="3000.000000pt" viewBox="0 0 3000.000000 3000.000000"
 preserveAspectRatio="xMidYMid meet">
<metadata>
Created by potrace 1.14, written by Peter Selinger 2001-2017
</metadata>
<g transform="translate(0.000000,3000.000000) scale(0.100000,-0.100000)"
fill="#000000" stroke="none">
<path d="M14435 29489 c-2644 -106 -5194 -924 -7401 -2374 -3154 -2073 -5377
-5299 -6193 -8990 -584 -2642 -413 -5418 491 -7965 1255 -3538 3826 -6448
7175 -8124 3944 -1972 8546 -2049 12553 -209 2459 1130 4567 2943 6055 5207
1556 2368 2385 5137 2385 7966 0 2829 -829 5598 -2385 7966 -2073 3154 -5299
5377 -8990 6193 -1195 264 -2478 379 -3690 330z m1809 -831 c3 -18 7 -181 10
-363 5 -297 13 -653 46 -2120 5 -247 12 -535 15 -640 19 -770 19 -752 -1 -758
-11 -3 -168 -8 -350 -12 l-331 -7 -83 149 c-45 81 -123 220 -172 308 -211 375
-290 516 -469 835 -56 102 -136 244 -177 315 l-74 130 6 -345 c5 -309 20
-1004 28 -1295 l3 -110 -80 -6 c-44 -4 -229 -9 -411 -13 l-331 -6 -7 163 c-4
89 -11 371 -16 627 -6 256 -12 562 -15 680 -7 269 -22 948 -34 1575 -6 264
-13 566 -16 671 l-6 191 118 7 c65 3 223 7 351 8 l233 3 75 -135 c42 -74 102
-182 134 -240 32 -58 98 -177 147 -265 49 -88 159 -284 243 -435 282 -506 345
-617 360 -639 14 -20 15 -11 13 101 -3 131 -19 886 -30 1356 l-6 282 29 0
c153 1 690 13 693 16 2 2 26 4 52 4 47 0 48 -1 53 -32z m2300 -454 c67 -19
153 -46 191 -59 39 -13 153 -49 255 -80 102 -31 232 -72 290 -90 58 -19 191
-61 297 -95 207 -66 251 -90 301 -162 50 -74 200 -370 217 -431 24 -85 17
-120 -95 -472 -21 -66 -59 -187 -85 -270 -25 -82 -61 -197 -80 -255 -18 -58
-61 -195 -95 -305 -33 -110 -69 -225 -80 -255 -10 -30 -46 -145 -80 -255 -34
-110 -77 -247 -95 -305 -18 -58 -57 -179 -85 -270 -159 -507 -148 -479 -210
-540 -43 -43 -94 -75 -230 -147 -182 -95 -255 -123 -324 -123 -36 0 -228 52
-366 100 -30 10 -145 46 -255 80 -110 34 -247 77 -305 95 -58 19 -179 57 -270
86 -196 62 -225 75 -272 127 -77 85 -245 409 -259 499 -13 83 -14 75 116 483
18 58 61 195 95 305 34 110 92 297 130 415 37 118 96 305 130 415 34 110 78
250 97 310 68 215 102 322 163 520 116 377 139 430 212 481 58 42 328 183 403
211 86 32 147 29 289 -13z m-8450 -471 c3 -43 13 -190 21 -328 8 -137 19 -322
25 -410 6 -88 17 -275 26 -415 14 -246 20 -339 44 -720 6 -96 14 -178 18 -181
4 -3 174 -145 377 -315 1145 -954 1235 -1030 1235 -1039 0 -3 -193 -102 -429
-220 l-429 -214 -74 63 c-40 34 -242 203 -448 376 -206 172 -453 379 -549 459
-96 80 -200 168 -233 195 l-59 49 -50 -24 c-28 -12 -53 -27 -55 -31 -3 -4 159
-334 360 -732 276 -546 363 -726 353 -734 -32 -26 -721 -362 -727 -355 -14 15
-1750 3467 -1750 3479 0 9 706 369 724 369 11 0 83 -139 456 -885 156 -311
285 -567 287 -569 7 -9 113 49 113 61 0 17 -27 478 -40 683 -5 88 -17 275 -25
415 -8 140 -19 325 -25 410 -5 85 -10 181 -10 212 l0 58 418 209 c229 116 422
210 428 210 7 1 14 -30 18 -76z m11804 -900 c87 -59 198 -134 247 -168 50 -34
234 -160 410 -280 176 -120 370 -252 430 -294 327 -222 360 -248 400 -316 25
-43 40 -105 80 -340 32 -194 32 -225 -4 -300 -16 -33 -107 -175 -203 -315 -96
-140 -259 -379 -362 -530 -103 -151 -203 -294 -222 -317 -50 -61 -131 -96
-314 -135 -127 -27 -177 -33 -278 -33 l-123 0 -19 -65 c-10 -36 -42 -153 -70
-260 -28 -107 -64 -240 -80 -295 -15 -55 -46 -170 -69 -255 -43 -157 -74 -271
-131 -482 -22 -79 -36 -116 -44 -111 -6 3 -60 40 -121 81 -60 42 -216 147
-345 235 -129 88 -237 161 -239 163 -5 4 15 87 54 224 18 63 52 183 74 265 23
83 57 204 76 270 18 66 55 197 80 290 26 94 62 223 81 288 19 66 34 125 34
132 0 8 -49 47 -109 88 l-109 74 -43 -61 c-23 -34 -74 -108 -114 -166 -164
-240 -514 -752 -579 -849 -38 -57 -75 -105 -81 -108 -7 -2 -128 76 -271 173
-366 249 -404 277 -404 287 0 5 68 108 152 230 159 233 523 765 992 1452 154
226 406 595 560 820 154 226 327 479 384 563 57 83 108 152 114 152 5 0 80
-48 166 -107z m-15275 -1464 c41 -6 90 -21 115 -36 41 -24 185 -166 466 -462
69 -74 125 -137 124 -141 -3 -7 -427 -414 -537 -515 l-53 -50 -157 163 c-189
197 -185 195 -289 100 -221 -204 -443 -425 -449 -446 -3 -13 1 -37 8 -52 23
-47 1445 -1532 1488 -1554 22 -12 32 -12 56 -1 37 15 511 468 520 496 4 11 4
31 1 44 -3 13 -74 94 -157 181 l-151 158 124 121 c167 163 465 445 471 445 8
0 531 -551 556 -586 38 -54 51 -132 51 -319 -1 -93 -4 -199 -9 -235 -18 -140
-4 -123 -555 -651 -276 -264 -521 -492 -545 -507 -72 -42 -132 -49 -381 -42
-204 5 -230 8 -275 28 -60 27 -78 45 -443 427 -158 164 -492 513 -742 775
-922 964 -876 912 -901 1001 -15 53 -13 381 2 478 21 135 8 120 533 623 265
253 500 476 524 496 75 62 121 71 340 72 106 0 226 -5 265 -11z m18648 -1331
c331 -419 475 -600 644 -813 178 -224 241 -308 260 -345 26 -50 31 -174 12
-301 -9 -57 -19 -131 -22 -164 -9 -87 -33 -163 -65 -210 -28 -41 -56 -65 -285
-246 -66 -53 -272 -216 -458 -363 -185 -147 -360 -281 -387 -298 -63 -39 -143
-46 -327 -29 -181 17 -278 36 -337 65 -39 20 -53 23 -62 13 -12 -14 -58 -85
-354 -552 -122 -192 -243 -383 -269 -423 -114 -180 -183 -288 -190 -295 -5 -4
-82 85 -172 199 -90 114 -210 265 -266 335 -57 71 -103 134 -103 140 0 7 62
107 137 223 75 116 180 279 233 361 54 83 148 229 210 325 62 96 142 219 177
273 35 54 63 101 61 106 -2 4 -39 52 -82 108 l-80 102 -85 -67 c-47 -37 -303
-238 -568 -448 l-481 -382 -24 26 c-27 30 -470 590 -481 609 -5 8 52 59 165
150 186 148 368 292 598 474 501 398 634 503 724 574 160 126 429 339 1015
804 300 237 548 431 552 431 4 0 144 -172 310 -382z m-9666 -58 c1251 -97
2342 -395 3415 -931 900 -450 1626 -974 2341 -1688 714 -715 1238 -1441 1688
-2341 439 -879 722 -1785 861 -2760 66 -461 84 -739 84 -1260 0 -521 -18 -799
-84 -1260 -215 -1510 -800 -2923 -1715 -4145 -419 -560 -955 -1118 -1515
-1576 -840 -687 -1840 -1231 -2900 -1577 -700 -229 -1376 -360 -2190 -424
-203 -16 -977 -16 -1180 0 -1273 101 -2352 394 -3430 933 -900 450 -1626 974
-2341 1688 -714 715 -1238 1441 -1688 2341 -439 879 -722 1785 -861 2760 -66
461 -84 739 -84 1260 0 521 18 799 84 1260 215 1510 800 2923 1715 4145 419
560 955 1118 1515 1576 840 687 1840 1231 2900 1577 776 254 1540 391 2425
436 129 7 828 -3 960 -14z m-11852 -1266 c34 -20 105 -60 157 -89 52 -29 169
-94 260 -145 91 -51 224 -125 295 -165 72 -40 204 -114 295 -165 91 -51 203
-114 250 -140 47 -26 164 -91 260 -145 96 -54 285 -160 420 -235 237 -132 432
-241 725 -405 236 -132 262 -151 297 -220 54 -105 140 -416 142 -511 0 -65 -3
-78 -46 -165 -26 -52 -81 -155 -123 -229 -83 -145 -189 -334 -386 -688 -68
-123 -141 -244 -162 -268 -23 -26 -63 -55 -100 -73 -61 -29 -294 -101 -412
-127 -102 -23 -189 -1 -324 80 -31 19 -101 59 -156 89 -95 51 -223 123 -605
337 -91 51 -266 149 -390 217 -124 69 -254 142 -290 163 -36 20 -126 71 -200
112 -74 41 -196 109 -270 151 -74 41 -265 148 -425 237 -159 89 -334 187 -388
217 l-98 55 20 31 c10 18 50 88 88 157 192 346 287 516 293 523 4 4 85 -36
181 -89 96 -54 230 -129 299 -167 69 -39 179 -100 245 -137 66 -37 192 -108
280 -157 88 -49 185 -104 215 -120 60 -33 463 -259 735 -411 94 -52 224 -125
290 -162 66 -37 178 -99 248 -139 148 -84 186 -94 222 -61 13 12 59 84 101
159 248 438 244 430 244 471 0 42 -22 59 -218 169 -301 168 -423 237 -692 386
-146 81 -269 151 -275 155 -5 4 -59 34 -120 67 -103 57 -219 121 -615 343 -91
51 -264 148 -385 215 -287 160 -345 194 -345 204 0 8 43 87 208 381 35 63 91
163 124 223 33 59 62 107 65 107 2 0 32 -16 66 -36z m23500 -1661 c50 -107
151 -321 252 -541 21 -45 36 -84 34 -86 -2 -2 -74 -36 -159 -76 -85 -40 -193
-91 -240 -113 -47 -22 -123 -57 -170 -79 -47 -22 -152 -72 -235 -110 -82 -39
-215 -101 -295 -138 -249 -116 -456 -213 -705 -330 -320 -150 -534 -250 -685
-320 -69 -32 -327 -153 -575 -270 -247 -116 -456 -212 -464 -213 -8 -1 -39 52
-81 143 -37 80 -113 243 -169 364 -56 120 -100 223 -98 230 3 6 81 47 173 90
93 44 248 116 344 161 96 45 240 113 320 150 80 37 215 100 300 140 85 40 268
126 405 190 138 64 315 147 395 185 196 92 440 206 525 245 39 18 187 88 330
155 143 67 312 146 375 175 63 29 167 78 230 108 63 31 120 56 126 56 6 1 36
-52 67 -116z m-24683 -1969 c36 -8 128 -29 205 -45 214 -47 386 -85 540 -119
77 -17 194 -42 260 -56 150 -32 262 -62 297 -80 15 -8 44 -30 63 -50 41 -41
220 -305 260 -384 35 -70 43 -158 21 -255 -8 -38 -29 -133 -46 -210 -42 -193
-87 -396 -120 -550 -16 -71 -34 -154 -41 -182 -7 -29 -10 -55 -8 -58 3 -3 48
-14 100 -25 116 -24 444 -96 824 -180 357 -79 422 -93 448 -97 15 -3 30 -9 32
-14 3 -4 -3 -48 -14 -96 -11 -48 -41 -182 -66 -298 -72 -333 -90 -405 -97
-405 -9 0 -242 49 -423 90 -77 17 -203 45 -280 62 -310 67 -406 88 -540 118
-77 17 -198 44 -270 60 -205 44 -398 87 -550 120 -77 17 -198 44 -270 60 -71
15 -193 42 -270 59 -77 16 -203 44 -280 61 -211 47 -502 111 -800 175 -65 14
-121 28 -124 31 -6 6 42 243 109 534 11 47 35 158 55 248 19 89 51 235 70 325
20 89 44 200 55 247 11 47 40 180 66 295 25 116 56 233 68 260 31 68 109 136
266 232 212 130 242 143 324 143 39 0 100 -7 136 -16z m25146 -165 c32 -12
138 -75 236 -141 235 -157 247 -172 293 -388 14 -69 39 -186 55 -260 16 -74
40 -189 54 -255 14 -66 41 -194 61 -285 101 -465 102 -479 55 -578 -37 -78
-204 -335 -256 -391 -20 -23 -55 -51 -76 -62 -37 -19 -173 -53 -418 -104 -63
-13 -178 -38 -255 -54 -77 -16 -143 -26 -146 -23 -3 4 -15 52 -27 107 -12 55
-36 165 -53 245 -17 80 -44 205 -60 278 -16 73 -29 141 -29 151 0 15 16 22 88
36 168 34 307 67 332 78 56 27 56 60 -1 322 -100 458 -97 447 -142 459 -42 10
-580 -105 -617 -132 -30 -23 -36 -63 -20 -135 6 -29 25 -115 41 -192 34 -161
62 -293 119 -559 22 -104 40 -203 40 -220 -1 -63 -47 -163 -145 -316 -164
-255 -190 -273 -456 -329 -79 -17 -209 -44 -289 -61 -80 -17 -206 -44 -280
-60 -74 -16 -200 -43 -280 -60 -244 -52 -247 -52 -302 -40 -77 16 -119 38
-293 152 -156 102 -218 156 -249 216 -14 27 -52 182 -96 397 -26 126 -60 285
-105 495 -121 563 -121 557 -72 664 38 82 216 354 264 401 55 55 89 70 225
101 239 53 629 134 648 134 16 0 21 -18 117 -470 19 -91 43 -201 53 -245 13
-55 15 -82 8 -86 -6 -4 -38 -12 -72 -19 -151 -28 -330 -71 -357 -85 -40 -21
-41 -46 -4 -225 101 -489 104 -501 132 -532 22 -25 63 -23 228 12 417 87 428
90 439 134 5 22 -11 110 -83 451 -17 77 -39 185 -51 240 -11 55 -32 150 -45
211 -29 130 -32 217 -8 276 29 75 241 394 290 438 60 52 91 61 528 155 198 42
421 89 495 105 74 17 176 38 225 49 121 26 191 26 261 0z m-767 -4869 l68
-205 553 -5 553 -5 -429 -312 c-236 -171 -437 -317 -447 -325 -16 -12 -6 -47
153 -537 93 -289 169 -526 167 -527 -1 -2 -203 143 -449 322 l-447 325 -447
-325 c-246 -179 -449 -325 -450 -323 -2 1 74 236 167 522 93 286 169 523 169
527 0 4 -201 152 -446 330 l-445 323 553 3 554 2 163 502 c89 275 167 513 173
527 9 23 23 -12 115 -294 57 -176 135 -412 172 -525z m-23180 -60 l68 -205
553 -5 553 -5 -429 -312 c-236 -171 -437 -317 -447 -325 -16 -12 -6 -47 153
-537 93 -289 169 -526 167 -527 -1 -2 -203 143 -449 322 l-447 325 -447 -325
c-246 -179 -449 -325 -450 -323 -2 1 74 236 167 522 93 286 169 523 169 527 0
4 -201 152 -446 330 l-445 323 553 3 554 2 163 502 c89 275 167 513 173 527 9
23 23 -12 115 -294 57 -176 135 -412 172 -525z m15881 -7835 c0 -2 268 -828
595 -1836 327 -1007 598 -1841 601 -1854 6 -23 -5 -27 -381 -150 -213 -70
-388 -125 -390 -123 -2 2 -124 374 -271 828 -147 454 -270 828 -274 832 -3 4
-77 -398 -164 -895 -88 -496 -162 -907 -165 -913 -3 -6 -266 241 -591 558
-322 312 -624 604 -671 648 l-86 79 274 -841 c150 -463 272 -842 271 -844 -12
-10 -775 -251 -780 -246 -5 5 -1133 3465 -1202 3689 -7 21 7 27 319 128 180
59 332 104 338 102 7 -3 356 -339 777 -746 421 -408 766 -738 767 -734 2 5 84
478 183 1053 100 575 185 1049 189 1053 7 7 634 214 654 216 4 1 7 -1 7 -4z
m-7480 -580 c354 -108 659 -205 677 -216 71 -44 133 -137 270 -409 46 -91 48
-98 48 -180 0 -80 -7 -108 -110 -447 -60 -200 -115 -363 -121 -363 -14 0 -765
227 -771 234 -2 2 23 95 56 206 63 210 67 229 51 259 -13 25 -49 38 -371 136
-310 94 -358 101 -385 59 -28 -42 -625 -2024 -622 -2063 2 -23 11 -40 28 -52
29 -21 639 -209 678 -209 14 0 34 8 44 17 16 15 62 145 129 371 16 54 25 72
35 68 8 -3 180 -56 382 -117 202 -61 372 -114 378 -117 8 -5 -24 -121 -96
-359 -59 -194 -115 -372 -124 -397 -29 -76 -109 -139 -307 -242 -280 -147
-270 -146 -569 -54 -69 21 -341 104 -605 184 -265 80 -498 152 -519 161 -80
34 -142 121 -287 402 -68 133 -80 191 -56 286 17 66 740 2457 784 2592 38 116
67 169 116 209 47 39 340 196 422 228 100 38 134 30 845 -187z m3462 -449 c43
-22 99 -71 226 -200 94 -95 177 -189 188 -211 18 -39 19 -79 22 -1499 l2
-1459 -30 -66 c-26 -54 -57 -91 -188 -222 -130 -130 -169 -163 -222 -188 l-65
-31 -720 0 -720 0 -64 30 c-87 41 -362 310 -413 403 l-33 62 0 1455 0 1455 28
60 c22 47 59 91 180 211 84 83 171 164 195 179 83 54 80 54 847 52 l710 -2 57
-29z m-6680 -1346 c267 -100 395 -397 279 -645 -36 -78 -129 -180 -199 -218
-147 -80 -345 -75 -481 12 -61 40 -142 125 -170 179 -147 289 33 645 350 692
71 10 162 2 221 -20z"/>
<path d="M18457 27322 c-18 -20 -62 -148 -167 -487 -34 -110 -92 -297 -130
-415 -37 -118 -94 -298 -125 -400 -55 -179 -70 -226 -170 -540 -26 -80 -49
-170 -52 -201 -5 -53 -4 -57 23 -76 16 -12 70 -33 119 -48 50 -15 137 -42 195
-60 373 -120 369 -119 407 -83 14 13 33 56 48 107 15 47 41 133 60 191 74 232
106 334 165 525 34 110 92 297 130 415 37 118 96 305 130 415 34 110 75 242
91 293 52 165 52 165 -181 237 -74 23 -202 64 -285 91 -177 57 -233 64 -258
36z"/>
<path d="M21721 25473 c-123 -181 -225 -333 -228 -340 -2 -6 112 -91 257 -190
396 -270 377 -261 428 -218 42 35 391 547 398 584 11 54 13 52 -448 367 -73
50 -145 99 -159 108 l-26 16 -222 -327z"/>
<path d="M24540 23040 c-151 -121 -292 -234 -313 -252 l-38 -33 206 -260 c241
-304 269 -335 305 -335 35 0 73 26 340 239 134 106 237 196 246 213 15 28 14
33 -8 74 -29 54 -439 573 -453 573 -5 0 -134 -99 -285 -219z"/>
<path d="M15305 22714 c-27 -3 -115 -14 -195 -25 -398 -55 -488 -105 -850
-469 -135 -136 -251 -243 -272 -253 -58 -27 -96 -22 -133 18 -18 19 -41 56
-50 82 -55 151 -105 216 -200 259 -79 37 -155 47 -295 41 -234 -11 -534 -108
-895 -292 -388 -197 -845 -502 -1000 -667 -304 -323 -1117 -1454 -1649 -2293
-78 -123 -125 -223 -137 -292 -12 -67 -2 -120 51 -268 42 -116 43 -219 6 -375
-14 -58 -46 -197 -70 -310 -56 -253 -58 -261 -85 -334 -61 -172 -169 -284
-482 -499 -161 -111 -183 -156 -108 -221 23 -20 83 -52 136 -72 51 -21 90 -41
86 -44 -5 -4 -40 -12 -80 -19 -127 -22 -230 -84 -279 -167 -44 -74 -55 -130
-64 -309 -4 -94 -13 -190 -19 -213 -17 -60 -64 -110 -118 -125 l-45 -12 6 -45
c9 -67 55 -151 94 -174 21 -12 60 -20 105 -23 40 -2 82 -6 94 -9 30 -6 53 -53
53 -109 0 -46 -7 -54 -27 -34 -7 7 -19 9 -28 5 -21 -8 -13 -51 32 -176 141
-391 144 -400 119 -400 -9 0 -25 5 -36 12 -17 11 -26 5 -78 -52 -100 -110
-207 -145 -368 -122 -86 13 -233 58 -367 113 -129 54 -187 50 -187 -13 0 -29
54 -182 73 -205 5 -7 28 -18 50 -24 107 -29 187 -94 207 -168 16 -62 64 -116
205 -234 148 -123 225 -196 225 -213 0 -15 -40 -31 -105 -43 -70 -13 -131 2
-246 60 -53 27 -107 49 -121 49 -33 0 -70 -43 -98 -114 l-24 -59 30 -24 c16
-14 85 -62 154 -108 222 -148 482 -272 1020 -486 124 -50 229 -94 233 -98 4
-4 -57 -13 -135 -20 -163 -14 -220 -24 -298 -53 -106 -38 -160 -99 -160 -179
0 -52 -4 -49 120 -89 140 -44 251 -62 425 -67 262 -8 430 23 822 151 l196 65
86 -71 c47 -39 100 -83 117 -98 17 -14 67 -83 112 -152 l81 -125 66 -234 c36
-129 79 -269 96 -311 76 -191 249 -375 453 -484 112 -60 205 -91 331 -111 91
-15 116 -15 197 -4 51 7 122 24 157 37 36 14 68 21 73 16 13 -13 42 -255 88
-747 42 -445 76 -653 135 -830 27 -81 83 -200 115 -245 10 -14 23 -44 29 -66
13 -48 75 -147 140 -224 52 -61 158 -208 266 -370 65 -99 123 -206 175 -325
32 -72 61 -98 190 -175 80 -47 128 -83 157 -117 32 -38 56 -55 101 -72 67 -25
93 -50 143 -135 41 -70 128 -154 229 -221 191 -125 571 -316 820 -411 63 -24
165 -70 227 -101 l112 -58 32 19 c30 18 45 18 253 10 214 -9 417 -10 716 -3
140 2 152 1 335 -40 110 -25 228 -45 280 -48 115 -6 611 31 690 52 33 9 69 24
79 35 20 20 20 22 -11 81 -2 3 16 11 39 18 64 20 146 63 265 142 173 114 358
198 603 272 103 31 156 46 311 87 123 32 347 270 444 471 41 86 95 145 232
255 50 40 106 91 125 112 18 22 52 49 75 60 67 34 124 115 164 229 16 47 26
84 55 208 2 11 11 72 19 135 26 199 17 484 -24 803 -7 51 -7 122 -1 210 23
307 39 402 142 837 71 299 69 288 101 455 40 210 46 251 59 427 26 359 -38
740 -177 1054 -14 31 -25 61 -25 65 0 5 31 51 69 102 97 130 164 252 203 370
32 98 33 108 33 262 0 119 -5 179 -18 233 -41 169 -108 349 -213 571 -24 51
-44 95 -44 96 0 2 -38 81 -85 176 -47 95 -85 176 -85 181 0 21 659 776 796
913 163 163 207 228 240 354 27 108 3 184 -111 356 -131 197 -141 266 -66 433
57 127 68 198 47 293 -16 73 -45 135 -188 409 -173 331 -241 625 -242 1040
l-1 215 56 220 c67 260 84 372 76 498 -11 180 -72 311 -204 438 -115 112 -271
195 -516 278 -175 58 -220 83 -310 170 -98 94 -150 178 -308 495 -77 153 -164
316 -194 361 -113 167 -263 289 -419 340 -115 37 -204 32 -361 -20 -161 -54
-210 -64 -307 -65 -184 0 -311 43 -788 267 -299 141 -362 169 -513 227 -270
104 -521 171 -767 202 -118 15 -405 25 -495 18z m2968 -3468 c89 -37 211 -246
305 -521 53 -158 116 -396 138 -520 15 -89 34 -94 105 -28 79 74 148 241 149
359 0 42 18 91 36 98 50 19 124 -91 182 -274 26 -82 68 -273 87 -401 13 -88
75 -132 236 -168 68 -16 102 -29 116 -44 24 -27 263 -458 263 -474 0 -6 -51
-116 -114 -245 -124 -253 -146 -303 -146 -325 0 -8 26 -44 59 -79 135 -148
177 -310 124 -487 -20 -70 -56 -142 -136 -281 -85 -146 -157 -289 -157 -311 0
-9 17 -42 38 -73 178 -264 333 -596 403 -862 76 -292 79 -611 9 -905 -65 -275
-173 -515 -460 -1020 -197 -347 -203 -359 -281 -515 -71 -142 -148 -323 -181
-424 -58 -182 -118 -480 -99 -499 15 -15 111 106 160 203 27 52 70 156 95 230
120 344 160 426 236 476 54 36 67 23 41 -42 -322 -807 -398 -1045 -470 -1482
l-8 -53 87 -87 c69 -69 90 -96 95 -125 5 -25 3 -42 -6 -53 -27 -32 -203 173
-351 411 -81 129 -178 305 -178 322 0 6 20 18 45 28 143 54 155 114 155 747 0
460 -6 549 -45 663 -25 72 -96 174 -187 268 -73 76 -79 81 -91 62 -31 -49
-113 -126 -160 -148 -187 -90 -377 -127 -657 -127 -393 -1 -711 87 -998 277
-128 85 -189 147 -260 266 -56 93 -127 177 -151 177 -27 0 -276 -68 -391 -107
-435 -146 -787 -376 -1037 -675 -130 -156 -182 -172 -299 -89 -88 61 -128 81
-234 116 -47 15 -143 51 -215 80 -237 96 -310 118 -386 113 -58 -3 -73 -8 -97
-31 l-28 -27 -40 28 c-121 88 -314 266 -405 375 -100 118 -182 261 -228 393
-26 76 -60 228 -61 272 0 18 -11 63 -23 100 -13 37 -30 111 -37 166 -16 114
-32 141 -82 141 -33 0 -33 0 -40 60 -15 129 -21 669 -9 825 26 338 74 598 166
890 78 251 122 464 154 745 7 55 14 119 17 142 4 36 15 51 84 117 119 113 178
149 254 154 46 3 72 -1 96 -13 47 -24 114 -89 150 -146 18 -27 38 -49 44 -49
7 0 41 48 76 108 34 59 85 145 113 192 159 271 285 387 383 350 16 -6 47 -29
69 -51 l41 -39 65 68 c36 37 97 105 134 152 113 139 186 220 200 220 7 0 24
-17 37 -37 44 -66 107 -125 131 -121 49 7 57 84 32 293 -21 172 -20 205 5 205
11 0 61 -29 112 -65 232 -161 303 -194 356 -164 44 24 56 78 82 367 20 217 59
276 147 223 31 -20 32 -20 45 0 18 26 103 40 225 37 l98 -3 42 -70 c39 -66 74
-105 94 -105 20 0 69 59 104 125 41 78 65 102 111 111 35 6 97 -16 130 -47 27
-25 34 -17 68 74 47 125 118 249 176 309 96 98 170 101 270 11 69 -62 128
-152 239 -363 51 -96 102 -185 113 -197 44 -47 67 -27 119 104 50 127 79 181
116 213 29 26 41 30 92 30 121 0 200 -93 268 -315 35 -114 65 -186 85 -199 23
-14 71 31 102 99 52 110 56 243 21 585 -20 197 -9 276 43 305 34 18 36 18 75
1z m-7565 -3916 c212 -35 432 -171 690 -428 134 -134 437 -468 437 -481 -1 -3
-23 -17 -49 -31 -124 -66 -98 -131 100 -250 59 -36 123 -79 142 -97 29 -27 32
-35 22 -52 -14 -27 -22 -26 -84 4 -28 14 -76 29 -106 35 -180 34 -167 -91 16
-160 30 -11 114 -29 187 -40 153 -24 253 -51 290 -80 23 -18 25 -24 16 -49 -6
-16 -21 -39 -35 -52 -24 -23 -33 -24 -152 -24 -138 0 -168 -9 -178 -50 -10
-40 1 -52 56 -59 29 -4 74 -15 101 -25 65 -25 151 -89 147 -110 -5 -23 -97
-34 -177 -22 -35 6 -69 7 -74 4 -13 -8 -1 -154 17 -214 35 -114 77 -172 255
-349 174 -172 258 -300 197 -300 -27 0 -261 -82 -302 -105 -23 -13 -55 -40
-73 -60 -27 -31 -31 -43 -31 -91 0 -57 21 -114 43 -114 6 0 35 8 62 19 70 26
145 35 194 21 44 -12 111 -63 111 -86 0 -7 -17 -21 -37 -30 -65 -32 -159 -131
-253 -269 -50 -74 -109 -150 -131 -169 l-39 -36 -110 0 c-86 0 -125 5 -172 21
-182 61 -295 208 -437 564 -53 133 -58 145 -84 205 -9 19 -25 58 -36 87 -43
109 -127 263 -217 398 -123 185 -208 294 -580 740 -471 566 -664 904 -664
1164 0 225 166 403 475 509 84 29 194 60 230 65 60 8 172 7 233 -3z m4012
-3676 c5 -5 1 -40 -10 -81 -83 -317 -83 -890 1 -1573 24 -201 105 -723 124
-806 4 -18 24 -28 102 -53 124 -39 238 -66 378 -88 154 -24 594 -24 783 0 481
63 907 171 1627 412 463 155 441 146 456 192 18 57 23 276 9 358 -49 284 -184
516 -347 596 -37 19 -68 25 -140 27 -51 2 -93 8 -93 12 0 27 91 117 181 178
101 69 104 70 183 76 45 4 126 14 181 22 55 8 109 16 120 17 18 2 21 -6 27
-88 34 -415 150 -727 341 -916 37 -36 64 -69 60 -73 -3 -3 -33 -6 -65 -6 -32
0 -58 -3 -58 -7 0 -3 29 -37 65 -74 79 -82 108 -142 109 -224 1 -145 -131
-298 -388 -450 l-79 -46 -111 22 c-140 28 -320 30 -416 5 -139 -36 -221 -86
-430 -265 -281 -239 -460 -334 -750 -397 -117 -26 -501 -26 -670 -1 -309 47
-493 98 -685 192 -170 83 -259 174 -275 280 -5 35 -8 40 -30 38 -184 -16 -195
-16 -238 6 -52 26 -60 44 -38 81 23 40 20 104 -10 206 -40 141 -39 140 -106
136 -52 -4 -59 -1 -96 32 -64 58 -97 146 -149 396 -28 139 -31 236 -13 450 74
871 175 1309 327 1412 29 20 105 20 123 2z m367 -118 c148 -51 326 -115 433
-156 458 -175 664 -243 950 -315 205 -51 476 -107 585 -120 64 -8 90 -21 54
-29 -84 -17 -499 -46 -654 -46 -144 0 -413 23 -545 45 -326 57 -638 183 -892
362 -106 74 -108 76 -108 134 0 73 26 169 46 169 2 0 61 -20 131 -44z m2518
-1041 c66 -9 147 -21 180 -28 l60 -12 32 -65 c75 -155 128 -362 140 -545 l6
-101 -69 -26 c-221 -86 -392 -132 -751 -203 -151 -31 -310 -65 -352 -76 -42
-11 -98 -27 -126 -34 -27 -7 -103 -29 -167 -49 -65 -20 -120 -36 -122 -36 -2
0 -15 24 -29 53 -15 29 -40 66 -57 82 -27 26 -39 30 -84 30 -43 -1 -65 -8
-127 -45 -121 -72 -239 -130 -264 -130 -43 0 -81 45 -127 152 -48 114 -99 178
-141 178 -27 0 -31 -7 -43 -74 -9 -52 -83 -129 -141 -146 l-41 -13 -99 74
c-315 237 -448 466 -369 634 13 28 35 61 49 74 l25 23 69 -27 c150 -61 240
-75 473 -75 345 0 489 -42 625 -180 27 -27 52 -50 56 -50 4 0 5 24 2 53 -4 41
-1 62 17 100 26 56 75 101 99 91 47 -20 140 -45 256 -69 72 -14 149 -33 173
-41 54 -18 139 -60 147 -74 3 -5 12 -10 20 -10 11 0 13 13 8 64 -5 60 -4 66
21 91 23 23 32 26 64 20 52 -9 129 -46 201 -94 65 -45 67 -44 50 4 -16 43 -5
79 28 95 17 8 81 16 158 19 l130 6 3 26 c4 31 -38 70 -108 103 -39 18 -64 21
-175 21 -71 0 -160 -6 -197 -13 -38 -6 -98 -18 -135 -24 -104 -20 -339 -16
-385 5 -21 10 -38 23 -38 30 0 13 423 156 545 183 188 44 331 52 510 29z"/>
<path d="M18777 17113 c-4 -3 -7 -13 -7 -22 0 -27 -71 -106 -168 -187 l-92
-78 6 -88 c5 -70 3 -97 -10 -131 -33 -86 -77 -108 -261 -132 -86 -10 -145 -23
-175 -38 -50 -25 -53 -34 -24 -107 11 -29 17 -72 17 -120 0 -130 -41 -213
-214 -432 -50 -62 -106 -144 -125 -183 l-34 -70 20 -110 c50 -274 147 -577
271 -854 38 -84 170 -344 256 -505 110 -205 174 -340 209 -446 25 -73 29 -101
29 -195 0 -105 -2 -113 -34 -180 -23 -46 -57 -92 -100 -136 -66 -66 -197 -159
-223 -159 -8 0 -43 14 -79 31 -203 99 -296 116 -439 83 -148 -34 -447 -94
-470 -94 -35 0 -146 54 -197 96 -56 46 -121 138 -173 244 -36 73 -41 91 -36
132 7 66 28 101 112 189 81 85 104 129 104 199 0 50 -16 110 -30 110 -4 0 -37
-17 -72 -39 -146 -88 -354 -182 -568 -254 -124 -42 -259 -81 -618 -182 -259
-72 -423 -130 -542 -193 -227 -120 -344 -253 -409 -462 -33 -105 -54 -310 -32
-310 4 0 30 28 57 62 125 160 332 350 492 453 239 153 568 261 932 304 215 26
255 29 262 25 4 -3 30 -50 58 -106 143 -287 300 -426 560 -494 126 -33 306
-50 790 -75 146 -7 223 -15 242 -25 15 -8 33 -14 41 -14 8 0 64 25 125 56 89
44 115 63 132 91 41 69 130 181 231 287 55 59 109 126 119 149 29 66 33 157
16 307 -30 253 -53 309 -294 708 -231 382 -318 565 -358 752 -12 59 -12 66 3
78 9 6 26 12 37 12 50 0 396 64 467 86 118 37 170 93 122 130 -24 18 -122 17
-208 -1 -268 -58 -347 -67 -394 -42 -43 21 -33 32 41 46 97 18 213 60 283 102
225 135 306 344 224 579 -16 47 -32 93 -35 102 -4 11 -1 20 7 22 8 3 79 25
159 51 l145 46 18 -22 c25 -31 50 -124 42 -162 -3 -17 -23 -68 -43 -112 -27
-59 -36 -93 -36 -130 0 -55 35 -145 56 -144 19 0 187 236 223 311 27 56 30 73
29 153 0 69 -6 104 -23 147 -34 86 -54 98 -170 98 -78 0 -102 4 -128 20 -53
32 -52 57 9 138 29 39 78 120 108 179 91 178 171 269 278 317 23 10 42 22 42
26 0 4 -26 12 -57 19 -32 6 -76 16 -98 21 -69 17 -373 80 -383 80 -5 0 -12 -3
-15 -7z m-472 -1437 c8 -25 6 -31 -18 -52 -48 -41 -117 -22 -117 31 0 64 113
81 135 21z"/>
<path d="M17501 16604 c-46 -19 -120 -76 -121 -91 0 -17 36 -26 83 -19 23 3
47 2 54 -2 23 -15 91 -177 108 -257 14 -67 16 -114 10 -290 -6 -203 -3 -245
17 -245 14 0 60 107 74 175 41 188 -19 600 -103 713 -27 37 -64 42 -122 16z"/>
<path d="M14650 16535 c-47 -8 -97 -18 -111 -23 -35 -14 -78 -59 -164 -172
-40 -52 -89 -110 -109 -127 -38 -34 -116 -178 -141 -260 -18 -58 -20 -189 -3
-199 7 -4 71 55 167 153 155 160 204 200 292 240 84 39 109 39 226 -2 321
-112 570 -280 639 -430 31 -67 31 -131 -1 -128 -313 34 -540 -19 -771 -178
-90 -62 -213 -190 -277 -286 -49 -73 -110 -196 -122 -246 -7 -26 -6 -27 38
-27 54 0 112 -24 222 -90 44 -27 109 -57 144 -66 63 -18 63 -18 107 5 24 13
44 29 44 35 0 6 -35 31 -77 56 -42 25 -96 63 -120 86 -37 35 -43 46 -43 81 0
44 30 93 57 93 8 0 58 -40 111 -89 103 -94 184 -151 215 -151 11 0 62 16 114
36 107 39 244 70 346 78 76 5 91 15 136 81 34 50 62 120 101 260 17 60 36 115
41 122 18 21 54 -12 146 -131 47 -61 101 -125 120 -142 20 -17 33 -36 29 -42
-4 -6 -48 -34 -99 -63 -122 -69 -177 -107 -177 -124 0 -19 54 -29 81 -14 37
20 121 39 170 39 104 0 186 -53 310 -201 51 -60 95 -109 98 -109 14 1 153 193
177 244 33 73 40 146 19 216 -9 30 -17 66 -18 80 -2 23 2 25 53 31 87 9 176
-7 260 -47 68 -33 93 -55 280 -245 113 -115 210 -209 217 -209 19 0 36 79 30
145 -11 143 -89 222 -412 420 -43 27 -93 61 -110 76 l-30 28 30 11 c18 7 62
10 110 8 99 -6 146 -28 305 -146 113 -84 184 -123 248 -137 42 -9 48 7 28 75
-34 115 -109 198 -257 285 -84 49 -189 138 -189 159 0 6 30 41 66 76 149 147
225 308 224 478 -1 70 -21 197 -34 210 -16 15 -85 -84 -166 -236 -142 -268
-207 -351 -320 -409 -49 -25 -66 -28 -152 -28 -53 0 -102 5 -107 10 -7 7 5 31
36 75 99 141 163 316 163 447 0 72 -18 177 -34 199 -12 15 -17 11 -55 -38 -23
-31 -72 -110 -109 -177 -89 -159 -142 -231 -209 -283 -51 -39 -57 -41 -77 -27
-13 7 -62 40 -110 72 -107 73 -190 111 -381 177 -175 61 -211 78 -285 134 -41
32 -113 66 -285 134 -245 96 -304 115 -428 131 -94 13 -108 13 -217 -4z m567
-1281 c19 -25 16 -68 -5 -87 -49 -45 -115 -42 -147 6 -33 51 26 111 100 103
22 -3 45 -12 52 -22z"/>
<path d="M13498 15493 c-31 -70 -31 -206 1 -288 88 -231 321 -414 527 -415 28
0 54 3 58 7 3 4 -69 81 -162 172 -113 111 -187 192 -222 245 -56 84 -120 213
-141 284 -7 23 -18 42 -26 42 -8 0 -23 -21 -35 -47z"/>
<path d="M13012 15188 c-7 -7 -12 -39 -12 -77 1 -152 79 -231 385 -390 77 -40
161 -88 188 -107 26 -19 51 -34 56 -34 18 0 22 39 10 80 -18 60 -83 114 -259
214 -212 121 -287 185 -338 290 -14 28 -20 34 -30 24z"/>
<path d="M14289 14486 c-16 -33 -4 -89 26 -125 58 -69 164 -94 495 -116 124
-8 245 -20 270 -25 72 -17 75 -16 78 8 5 33 -45 77 -108 96 -29 9 -107 22
-174 31 -266 32 -304 38 -375 57 -81 21 -119 38 -168 75 l-33 24 -11 -25z"/>
<path d="M10247 14834 c-31 -6 -48 -33 -68 -114 -18 -70 -18 -362 0 -445 26
-128 44 -196 52 -200 9 -6 29 13 64 59 36 47 54 134 64 302 10 157 18 198 51
252 25 41 46 39 77 -7 36 -53 43 -95 53 -323 10 -209 20 -284 55 -382 21 -61
86 -171 100 -169 14 2 33 82 46 193 13 114 6 251 -23 418 -12 67 -18 125 -15
128 3 3 33 -7 67 -22 70 -31 121 -84 139 -144 15 -51 15 -196 0 -286 -19 -114
-16 -319 5 -391 25 -85 37 -93 77 -51 17 18 42 58 56 88 21 46 25 69 24 152 0
54 -3 114 -7 133 -8 44 6 46 67 7 86 -56 144 -139 170 -248 16 -67 14 -241 -5
-414 -29 -264 -20 -446 29 -570 44 -111 146 -223 264 -291 72 -41 78 -64 29
-110 -52 -47 -129 -62 -182 -34 -40 21 -44 20 -55 -21 -22 -80 27 -117 154
-116 78 1 170 23 237 58 34 18 98 73 98 85 0 4 -20 39 -44 77 -115 177 -192
419 -291 907 -105 522 -168 741 -270 945 -108 215 -239 353 -420 440 -139 67
-245 91 -425 95 -80 2 -157 1 -173 -1z"/>
<path d="M2588 18200 c-27 -21 -39 -64 -107 -375 -17 -77 -42 -193 -57 -258
-14 -66 -24 -120 -22 -121 2 -2 57 -15 123 -29 442 -96 547 -119 600 -132 33
-8 63 -11 68 -6 4 4 23 79 42 167 18 87 48 222 65 299 62 281 63 293 7 321
-17 10 -81 28 -142 41 -60 13 -171 37 -245 54 -74 16 -164 36 -200 44 -86 19
-103 19 -132 -5z"/>
<path d="M14465 4305 l-25 -24 0 -1076 c0 -707 3 -1083 10 -1095 18 -34 75
-40 395 -40 336 0 380 5 395 46 6 16 10 442 10 1095 l0 1070 -25 24 -24 25
-356 0 -356 0 -24 -25z"/>
</g>
</svg>
